<?xml version="1.0" standalone="no"?>
<!DOCTYPE svg PUBLIC "-//W3C//DTD SVG 20010904//EN"
 "http://www.w3.org/TR/2001/REC-SVG-20010904/DTD/svg10.dtd">
<svg version="1.0" xmlns="http://www.w3.org/2000/svg"
 width="700.000000pt" height="700.000000pt" viewBox="0 0 700.000000 700.000000"
 preserveAspectRatio="xMidYMid meet">
<metadata>
Created by potrace 1.14, written by Peter Selinger 2001-2017
</metadata>
<g transform="translate(0.000000,700.000000) scale(0.100000,-0.100000)"
fill="#000000" stroke="none">
<path d="M1140 6987 c-13 -7 -35 -28 -47 -46 l-23 -34 2 -3414 3 -3415 37 -34
c30 -27 46 -34 80 -35 24 0 1090 -1 2369 -1 2120 0 2329 2 2358 16 17 9 39 28
48 43 17 26 18 157 20 2470 l2 2443 -130 0 -129 0 0 -2360 0 -2360 -2200 0
-2200 0 -1 23 c-1 30 -1 6439 0 6455 1 9 263 12 1276 12 l1275 0 1 33 c1 47 1
157 0 190 l-1 27 -1357 0 c-1066 0 -1363 -3 -1383 -13z"/>
<path d="M4274 6990 c-11 -4 -33 -22 -47 -40 l-27 -32 0 -771 c0 -748 1 -773
20 -804 10 -18 31 -40 47 -50 26 -17 73 -18 825 -18 761 0 799 1 832 19 58 31
66 61 66 252 l0 167 -63 61 c-50 49 -183 173 -327 306 -57 52 -166 155 -305
286 -88 84 -180 171 -205 194 -25 23 -121 115 -215 204 -93 90 -188 179 -210
199 l-40 37 -165 -1 c-91 0 -174 -4 -186 -9z m431 -475 c103 -99 211 -202 239
-229 28 -26 96 -92 152 -145 147 -141 467 -447 554 -529 42 -40 68 -72 60 -73
-19 -1 -1197 -1 -1227 0 l-23 1 0 605 0 604 28 -27 c16 -15 113 -108 217 -207z"/>
<path d="M1743 6409 c-28 -8 -63 -41 -63 -60 0 -4 17 -3 37 1 20 5 102 7 183
6 148 -4 280 -28 377 -71 160 -71 235 -117 341 -210 185 -163 314 -379 370
-621 33 -143 41 -269 26 -425 l-6 -67 64 3 c59 2 116 24 119 44 0 3 2 15 5 26
11 55 4 285 -12 370 -55 289 -174 527 -368 728 -92 96 -188 172 -301 236 l-89
51 -326 -1 c-179 0 -339 -5 -357 -10z"/>
<path d="M2949 6332 c86 -86 187 -213 238 -299 14 -24 28 -42 31 -39 4 5 6
204 3 286 -1 15 -21 47 -54 83 l-53 57 -127 0 -126 0 88 -88z"/>
<path d="M1725 6115 l-60 -11 -3 -93 -3 -93 38 7 c21 4 49 9 63 12 47 10 195
6 255 -7 187 -38 362 -158 472 -320 38 -57 99 -192 108 -238 3 -15 7 -38 11
-52 17 -74 12 -236 -10 -335 -4 -20 1 -21 90 -21 78 0 94 3 95 15 0 9 3 25 5
36 3 11 7 76 8 144 9 457 -291 845 -733 947 -80 19 -255 24 -336 9z"/>
<path d="M1785 5753 c-11 -2 -44 -11 -73 -19 l-53 -15 3 -337 c3 -319 4 -338
23 -364 38 -52 59 -54 402 -54 l316 1 15 40 c11 28 16 78 16 165 0 105 -4 135
-23 190 -51 146 -156 270 -284 334 -40 20 -82 38 -95 41 -12 2 -27 7 -33 10
-12 8 -185 14 -214 8z"/>
<path d="M1779 4418 c-67 -12 -90 -42 -93 -119 -4 -96 7 -123 55 -146 39 -19
86 -19 1802 -18 1638 0 1764 1 1793 17 40 22 47 38 50 118 3 84 -9 114 -54
136 -35 17 -128 18 -1774 19 -955 0 -1756 -3 -1779 -7z"/>
<path d="M1694 3808 c-14 -46 -9 -225 6 -243 11 -13 70 -15 405 -15 345 0 394
2 406 16 18 22 18 236 0 258 -12 14 -58 16 -411 16 l-397 0 -9 -32z"/>
<path d="M2796 3815 c-28 -24 -30 -30 -31 -108 -2 -93 12 -132 51 -147 34 -13
2484 -13 2518 0 36 13 49 46 52 131 3 93 -16 132 -66 143 -18 3 -587 6 -1264
6 l-1231 0 -29 -25z"/>
<path d="M1739 3239 c-46 -21 -57 -51 -54 -149 3 -68 5 -76 31 -96 15 -12 39
-24 53 -26 14 -2 703 -3 1531 -3 1402 1 1507 2 1537 18 38 20 50 56 47 135 -3
80 -11 100 -47 119 -30 16 -134 17 -1547 18 -1382 0 -1517 -1 -1551 -16z"/>
<path d="M1745 2656 c-48 -21 -59 -41 -60 -114 -1 -95 3 -110 44 -137 l35 -25
1762 0 c1213 0 1771 3 1792 11 51 18 64 40 68 121 4 87 -8 116 -56 140 -33 17
-139 18 -1795 18 -1427 -1 -1766 -3 -1790 -14z"/>
<path d="M1727 2073 c-33 -17 -44 -53 -42 -140 1 -78 16 -119 49 -130 31 -11
2136 -11 2169 0 46 15 57 42 57 139 0 77 -3 90 -24 115 l-24 28 -1081 1 c-861
0 -1085 -2 -1104 -13z"/>
<path d="M4301 2081 c-20 -13 -29 -58 -29 -149 0 -73 4 -97 18 -115 l18 -22
521 0 c479 0 522 2 538 17 29 30 25 263 -5 269 -23 5 -1053 5 -1061 0z"/>
<path d="M1825 1500 l-120 -5 -11 -33 c-14 -43 -10 -202 5 -230 l12 -22 495 0
495 0 13 30 c15 38 14 207 -3 238 -12 22 -13 22 -264 23 -139 0 -308 1 -377 2
-69 1 -179 0 -245 -3z"/>
<path d="M3530 1502 c-407 -3 -383 5 -389 -129 -4 -97 13 -146 53 -157 11 -3
497 -6 1078 -6 l1057 0 28 24 c26 23 27 27 28 121 0 94 -1 97 -28 121 -22 19
-40 24 -80 24 -383 3 -1489 4 -1747 2z"/>
<path d="M1765 908 c-64 -17 -77 -37 -80 -121 -2 -89 7 -113 54 -141 34 -20
54 -20 1780 -21 962 0 1762 3 1781 8 19 5 46 20 60 33 23 21 26 31 25 96 -1
92 -9 114 -48 135 -30 17 -145 18 -1787 18 -966 1 -1769 -2 -1785 -7z"/>
</g>
</svg>
